# xmcd
#
# Track frame offsets:
# 150
# 17182
# 30222
# 55300
# 74215
# 92777
# 113322
# 130230
# 143307
# 155445
# 169465
# 183072
# 201565
#
# Disc length: 2893 seconds
#
#
# Revision: 2
# Processed by: cddbd v1.5.1PL2 Copyright (c) Steve Scherf et al.
# Submitted via: FreeRIP 2.00 
#
DISCID=ae0b4b0d
DTITLE=Bruno Venturini - Antologia della canzone napoletana - CD 2
DYEAR=1900
DGENRE=
TTITLE0=Funiculi' funicula'
TTITLE1=Marechiare
TTITLE2=Acquarello napoletano
TTITLE3='nu quarto 'e luna
TTITLE4=Torna a Surriento
TTITLE5=Era de maggio
TTITLE6=Autunno
TTITLE7=Vierno
TTITLE8=Chiove
TTITLE9='e rrose parlano
TTITLE10=Qui' fu' Napoli
TTITLE11=Nuttata 'e sentimento
TTITLE12=Anema nera
EXTD=0\n\n\n
EXTT0=
EXTT1=
EXTT2=
EXTT3=
EXTT4=
EXTT5=
EXTT6=
EXTT7=
EXTT8=
EXTT9=
EXTT10=
EXTT11=
EXTT12=
PLAYORDER=
